<?xml version="1.0" encoding="utf-8"?>
<!-- Generator: Adobe Illustrator 16.0.0, SVG Export Plug-In . SVG Version: 6.00 Build 0)  -->
<!DOCTYPE svg PUBLIC "-//W3C//DTD SVG 1.1//EN" "http://www.w3.org/Graphics/SVG/1.1/DTD/svg11.dtd">
<svg version="1.1" id="Layer_1" xmlns="http://www.w3.org/2000/svg" xmlns:xlink="http://www.w3.org/1999/xlink" x="0px" y="0px"
	 width="53.375px" height="53.375px" viewBox="0 0 53.375 53.375" enable-background="new 0 0 53.375 53.375" xml:space="preserve">
<rect y="-71.101" fill="#C8C8C8" width="53.375" height="53.375"/>
<rect x="178.973" y="-71.101" fill="#C8C8C8" width="53.375" height="53.375"/>
<rect fill="#C8C8C8" width="53.375" height="53.375"/>
<rect y="71.099" fill="#C8C8C8" width="53.375" height="53.375"/>
<rect y="142.2" fill="#C8C8C8" width="53.375" height="53.375"/>
<rect y="213.301" fill="#C8C8C8" width="53.375" height="53.374"/>
<rect y="284.4" fill="#C8C8C8" width="53.375" height="53.374"/>
<rect y="355.501" fill="#C8C8C8" width="53.375" height="53.375"/>
<g id="yrAK4z_1_">
	<g>
		<path fill-rule="evenodd" clip-rule="evenodd" fill="#FFFFFF" d="M42.447-59.569c0.325,0.646,0.909,1.284,0.933,1.942
			c0.104,2.928,0.05,5.862,0.043,8.794c-0.004,1.292-0.527,1.974-1.479,1.965c-0.949-0.007-1.451-0.685-1.455-1.989
			c-0.005-1.784-0.002-3.569-0.002-5.188c-3.144,3.154-6.333,6.356-9.613,9.648c1.388,2.121,2.153,4.703,1.626,7.59
			c-0.876,4.788-4.889,8.346-9.649,8.516c-4.943,0.177-9.264-3.08-10.441-7.865c-0.076-0.312-0.185-0.615-0.277-0.923
			c0-0.978,0-1.956,0-2.934c0.086-0.268,0.188-0.531,0.254-0.803c1.182-4.964,5.625-8.385,10.703-7.922
			c1.881,0.17,3.7,1.019,5.332,1.496c3.091-3.093,6.283-6.289,9.387-9.394c-1.55,0-3.338-0.018-5.126,0.007
			c-0.839,0.013-1.571-0.14-1.882-1.014c-0.319-0.9,0.22-1.458,0.891-1.927C35.276-59.569,38.861-59.569,42.447-59.569z
			 M22.405-45.871c-4.017-0.016-7.33,3.276-7.332,7.287c-0.002,4.044,3.26,7.359,7.256,7.37c4.096,0.012,7.39-3.263,7.399-7.354
			C29.738-42.568,26.441-45.854,22.405-45.871z"/>
	</g>
</g>
<g id="Sk9nvx_1_">
	<g>
		<path fill-rule="evenodd" clip-rule="evenodd" fill="#FFFFFF" d="M207.415-63.051c3.121,0.788,5.896,2.116,7.923,4.762
			c5.269,6.876,2.011,16.874-6.345,19.186c-1.272,0.354-1.809,0.812-1.588,2.121c0.094,0.558,0.015,1.146,0.015,1.898
			c1.284,0,2.481,0.017,3.678-0.004c1.186-0.02,2.002,0.442,2.12,1.69c0.104,1.081-0.759,1.786-2.139,1.81
			c-1.156,0.02-2.314,0.003-3.664,0.003c0,1.293-0.014,2.49,0.004,3.685c0.016,1.182-0.441,2.002-1.693,2.118
			c-1.084,0.101-1.783-0.76-1.804-2.141c-0.018-1.157-0.004-2.316-0.004-3.663c-1.282,0-2.478,0.017-3.673-0.003
			c-1.387-0.024-2.236-0.723-2.135-1.812c0.118-1.252,0.939-1.708,2.122-1.688c1.16,0.018,2.32,0.003,3.687,0.003
			c0-0.821-0.051-1.581,0.014-2.332c0.078-0.92-0.196-1.297-1.185-1.545c-5.636-1.421-9.364-6.314-9.314-12.044
			c0.048-5.507,3.969-10.397,9.391-11.716c0.37-0.09,0.729-0.219,1.095-0.328C205.085-63.051,206.25-63.051,207.415-63.051z
			 M205.653-42.078c4.795-0.002,8.72-3.9,8.75-8.69c0.031-4.84-3.926-8.79-8.8-8.781c-4.771,0.007-8.699,3.976-8.671,8.755
			C196.962-45.987,200.874-42.077,205.653-42.078z"/>
	</g>
</g>
<g id="Z4tYia_1_">
	<g>
		<path fill-rule="evenodd" clip-rule="evenodd" fill="#FFFFFF" d="M14.177,39.947c-0.019-0.333-0.062-0.469-0.021-0.5
			c1.452-1.166,0.749-2.549,0.422-3.912c-1.056-4.391-0.281-8.497,2.245-12.187c1.928-2.818,4.543-4.416,8.184-4.454
			c2.807-0.029,5.147,0.586,7.205,2.498c2.347,2.179,3.957,4.784,4.199,7.969c0.188,2.474-0.058,4.984-0.18,7.476
			c-0.038,0.769-0.097,1.41,0.59,1.992c0.71,0.603,0.533,1.209-0.407,1.335c-3.646,0.489-7.294,1.216-10.952,1.29
			c-2.897,0.059-5.813-0.703-8.72-1.108C15.866,40.223,14.996,40.075,14.177,39.947z"/>
		<path fill-rule="evenodd" clip-rule="evenodd" fill="#FFFFFF" d="M20.592,12.283c1.924-1.604,3.039-1.582,4.973-0.425
			c0.744,0.443,1.783,0.4,2.691,0.556c0.441,0.077,0.893,0.099,1.339,0.145c-0.073,0.447-0.138,0.896-0.222,1.341
			c-0.349,1.847-1.517,2.144-3.271,2.208c-2.178,0.081-3.687-0.467-4.612-2.47C21.274,13.175,20.922,12.774,20.592,12.283z"/>
		<path fill-rule="evenodd" clip-rule="evenodd" fill="#FFFFFF" d="M25.792,16.774c0.787,0,1.583-0.072,2.355,0.036
			c0.322,0.044,0.59,0.474,0.882,0.728c-0.302,0.254-0.595,0.714-0.908,0.729c-1.615,0.075-3.236,0.082-4.85-0.003
			c-0.328-0.018-0.63-0.537-0.943-0.825c0.324-0.221,0.631-0.595,0.975-0.634C24.123,16.71,24.962,16.774,25.792,16.774z"/>
	</g>
</g>
<g id="U8wUir_1_">
	<g>
		<path fill="#FFFFFF" d="M23.78,79.453c1.337,0,2.674,0,4.011,0c0.26,0.098,0.512,0.239,0.779,0.288
			c7.248,1.303,12.07,5.48,14.574,12.356c0.434,1.188,0.655,2.454,0.975,3.685c0,1.337,0,2.674,0,4.01
			c-0.096,0.261-0.23,0.513-0.281,0.783c-1.413,7.59-5.838,12.507-13.174,14.827c-0.939,0.296-1.914,0.481-2.873,0.719
			c-1.337,0-2.674,0-4.011,0c-0.261-0.097-0.514-0.23-0.782-0.281c-7.527-1.399-12.447-5.759-14.782-13.035
			c-0.315-0.984-0.513-2.007-0.764-3.013c0-1.336,0-2.673,0-4.01C7.55,95.522,7.691,95.27,7.738,95
			c1.299-7.25,5.468-12.078,12.353-14.578C21.281,79.991,22.549,79.771,23.78,79.453z M30.18,107.562
			c2.003,0,4.006,0.024,6.01-0.008c1.559-0.025,2.528-0.959,2.508-2.325c-0.021-1.29-0.982-2.247-2.451-2.26
			c-4.006-0.035-8.014-0.04-12.02,0.009c-1.505,0.018-2.517,1.104-2.447,2.418c0.069,1.287,1.045,2.146,2.533,2.164
			C26.268,107.583,28.224,107.566,30.18,107.562z M29.564,88.003c-1.718,0-3.436-0.015-5.152,0.005
			c-1.587,0.018-2.595,0.877-2.642,2.206c-0.048,1.31,0.974,2.368,2.493,2.387c3.482,0.044,6.966,0.041,10.448-0.009
			c1.468-0.022,2.417-1.009,2.413-2.3c-0.004-1.359-0.99-2.263-2.551-2.284C32.904,87.986,31.234,88.003,29.564,88.003z
			 M28.411,100.097c0-0.002,0-0.004,0-0.007c1.383,0,2.767,0.033,4.147-0.008c1.559-0.047,2.488-0.982,2.449-2.376
			c-0.036-1.325-0.964-2.206-2.459-2.223c-2.765-0.03-5.53-0.03-8.295,0.001c-1.451,0.016-2.441,0.952-2.483,2.231
			c-0.042,1.318,0.991,2.333,2.494,2.373C25.646,100.126,27.029,100.097,28.411,100.097z M19.762,105.27
			c-0.005-1.486-1.241-2.688-2.762-2.688c-1.528,0-2.716,1.192-2.705,2.713c0.011,1.498,1.254,2.741,2.731,2.73
			C18.488,108.015,19.766,106.728,19.762,105.27z M19.672,90.232c-0.031-1.462-1.21-2.593-2.683-2.573
			c-1.512,0.02-2.729,1.29-2.652,2.768c0.073,1.425,1.327,2.562,2.769,2.512C18.557,92.889,19.704,91.679,19.672,90.232z
			 M19.697,97.768c-0.012-1.444-1.205-2.62-2.666-2.626c-1.52-0.009-2.758,1.243-2.703,2.73c0.054,1.436,1.278,2.58,2.738,2.557
			C18.525,100.405,19.709,99.208,19.697,97.768z"/>
	</g>
</g>
<g id="kuu3WT_1_">
	<g>
		<path fill-rule="evenodd" clip-rule="evenodd" fill="#FFFFFF" d="M23.718,165.318c1.039-0.336,1.973-0.692,2.938-0.925
			c0.396-0.097,0.979-0.076,1.266,0.153c0.778,0.622,1.49,1.347,2.129,2.113c0.215,0.258,0.252,0.792,0.163,1.149
			c-0.251,1-0.609,1.974-0.956,3.053c0.904,0.465,1.84,0.84,2.643,1.402c0.425,0.3,0.846,0.913,0.88,1.412
			c0.212,3.143,0.175,3.145-2.659,4.596c-0.27,0.139-0.528,0.295-0.863,0.484c0.309,0.932,0.591,1.843,0.916,2.738
			c0.25,0.688,0.146,1.213-0.387,1.767c-2.111,2.196-2.094,2.214-6.075,1.034c-0.423,0.814-0.897,1.637-1.283,2.499
			c-0.321,0.72-0.771,1.06-1.59,1.047c-3.843-0.052-2.81,0.563-4.562-2.755c-0.124-0.236-0.252-0.471-0.432-0.807
			c-0.988,0.319-1.949,0.706-2.946,0.914c-0.444,0.094-0.964-0.17-1.448-0.275c-0.032-0.007-0.055-0.052-0.083-0.078
			c-2.339-2.162-2.338-2.162-1.366-5.141c0.094-0.288,0.168-0.583,0.281-0.975c-0.89-0.458-1.826-0.832-2.629-1.396
			c-0.423-0.296-0.84-0.912-0.871-1.408c-0.201-3.156-0.164-3.156,2.649-4.598c0.27-0.138,0.528-0.295,0.853-0.477
			c-0.323-1.01-0.701-1.978-0.92-2.979c-0.092-0.414,0.152-0.903,0.257-1.355c0.015-0.063,0.114-0.104,0.155-0.167
			c1.584-2.515,3.659-2.335,5.982-0.887c0.505-0.972,0.981-1.794,1.365-2.657c0.321-0.719,0.773-1.035,1.588-1.051
			c3.1-0.067,3.099-0.091,4.521,2.648C23.375,164.671,23.519,164.941,23.718,165.318z M12.712,166.068
			c-0.821-0.009-1.729,1.483-1.446,2.377c1.042,3.3,1.054,3.322-1.97,4.794c-0.694,0.336-0.877,0.742-0.914,1.494
			c-0.047,0.939,0.287,1.417,1.121,1.713c0.504,0.18,0.972,0.461,1.452,0.704c1.298,0.655,1.371,0.841,0.904,2.258
			c-0.181,0.548-0.313,1.118-0.56,1.634c-0.378,0.793-0.114,1.288,0.462,1.894c0.6,0.631,1.108,0.571,1.817,0.334
			c3.601-1.201,2.882-1.491,4.567,1.839c0.326,0.646,0.587,1.145,1.5,1.095c0.859-0.046,1.351-0.239,1.764-1.071
			c1.685-3.395,0.993-3.046,4.555-1.869c0.7,0.232,1.208,0.316,1.82-0.318c0.623-0.646,0.736-1.147,0.45-1.999
			c-1.176-3.507-1.535-2.813,1.908-4.538c0.769-0.385,1.022-0.823,1.032-1.668c0.01-0.837-0.329-1.204-1.022-1.549
			c-3.393-1.686-3.125-1.013-1.884-4.64c0.255-0.748,0.175-1.219-0.394-1.803c-0.607-0.624-1.133-0.754-1.907-0.414
			c-0.665,0.292-1.394,0.437-2.075,0.697c-0.713,0.272-1.195,0.053-1.524-0.593c-0.385-0.752-0.806-1.494-1.125-2.274
			c-0.246-0.606-0.629-0.708-1.235-0.752c-0.977-0.073-1.595,0.179-1.91,1.167c-0.197,0.616-0.58,1.169-0.857,1.761
			c-0.356,0.76-0.871,0.983-1.684,0.669C14.627,166.648,13.662,166.376,12.712,166.068z"/>
		<path fill-rule="evenodd" clip-rule="evenodd" fill="#FFFFFF" d="M19.782,169.026c3.197,0.04,5.826,2.715,5.762,5.865
			c-0.065,3.136-2.722,5.72-5.832,5.673c-3.178-0.047-5.784-2.75-5.707-5.919C14.078,171.597,16.76,168.989,19.782,169.026z
			 M24.672,174.774c-0.01-2.732-2.205-4.894-4.946-4.872c-2.666,0.021-4.832,2.194-4.845,4.865
			c-0.013,2.741,2.157,4.925,4.894,4.927C22.513,179.694,24.683,177.515,24.672,174.774z"/>
		<path fill-rule="evenodd" clip-rule="evenodd" fill="#FFFFFF" d="M22.318,174.817c-0.007,1.309-1.193,2.504-2.503,2.521
			c-1.373,0.02-2.596-1.197-2.573-2.559c0.022-1.389,1.232-2.554,2.614-2.517C21.177,172.301,22.324,173.489,22.318,174.817z
			 M21.447,174.836c0.021-0.966-0.672-1.688-1.628-1.698c-0.971-0.014-1.679,0.665-1.703,1.629
			c-0.024,0.965,0.661,1.685,1.624,1.702C20.688,176.486,21.428,175.779,21.447,174.836z"/>
	</g>
</g>
<g id="kuu3WT_2_">
	<g>
		<path fill-rule="evenodd" clip-rule="evenodd" fill="#FFFFFF" d="M39.528,151.986c0.761-0.247,1.445-0.509,2.151-0.679
			c0.291-0.07,0.717-0.056,0.927,0.113c0.57,0.456,1.092,0.986,1.561,1.548c0.156,0.188,0.184,0.58,0.119,0.841
			c-0.184,0.733-0.446,1.447-0.701,2.237c0.663,0.341,1.348,0.615,1.937,1.029c0.311,0.217,0.619,0.668,0.645,1.032
			c0.155,2.302,0.128,2.304-1.948,3.366c-0.197,0.102-0.387,0.217-0.633,0.356c0.227,0.681,0.434,1.35,0.672,2.004
			c0.183,0.504,0.107,0.889-0.283,1.294c-1.547,1.609-1.534,1.622-4.45,0.759c-0.31,0.595-0.657,1.197-0.94,1.83
			c-0.235,0.526-0.564,0.774-1.164,0.767c-2.814-0.037-2.059,0.413-3.342-2.017c-0.091-0.174-0.184-0.345-0.315-0.592
			c-0.725,0.234-1.429,0.517-2.158,0.669c-0.325,0.069-0.706-0.124-1.062-0.201c-0.023-0.004-0.039-0.039-0.061-0.058
			c-1.713-1.583-1.713-1.583-1-3.766c0.068-0.21,0.123-0.427,0.205-0.714c-0.651-0.334-1.337-0.608-1.926-1.022
			c-0.31-0.219-0.615-0.668-0.638-1.031c-0.147-2.312-0.12-2.313,1.94-3.367c0.197-0.102,0.388-0.217,0.625-0.35
			c-0.236-0.741-0.514-1.449-0.674-2.183c-0.067-0.303,0.111-0.662,0.188-0.993c0.012-0.047,0.084-0.076,0.114-0.123
			c1.16-1.842,2.681-1.71,4.382-0.65c0.37-0.711,0.719-1.313,1-1.945c0.235-0.528,0.566-0.757,1.163-0.771
			c2.271-0.047,2.271-0.066,3.312,1.941C39.277,151.511,39.382,151.708,39.528,151.986z M31.467,152.535
			c-0.602-0.006-1.267,1.086-1.06,1.741c0.764,2.417,0.771,2.432-1.443,3.511c-0.508,0.246-0.642,0.544-0.669,1.095
			c-0.034,0.687,0.21,1.036,0.821,1.255c0.369,0.131,0.712,0.337,1.063,0.515c0.95,0.479,1.005,0.616,0.662,1.653
			c-0.132,0.401-0.229,0.819-0.409,1.197c-0.277,0.58-0.084,0.944,0.338,1.387c0.439,0.462,0.812,0.418,1.331,0.246
			c2.638-0.88,2.111-1.093,3.346,1.346c0.239,0.474,0.43,0.839,1.099,0.803c0.63-0.033,0.989-0.175,1.292-0.785
			c1.233-2.487,0.728-2.231,3.337-1.368c0.512,0.168,0.885,0.23,1.333-0.234c0.456-0.474,0.539-0.841,0.329-1.464
			c-0.861-2.569-1.124-2.06,1.398-3.325c0.562-0.282,0.749-0.603,0.756-1.221c0.007-0.614-0.241-0.881-0.749-1.134
			c-2.485-1.235-2.289-0.742-1.38-3.397c0.187-0.549,0.128-0.894-0.288-1.321c-0.445-0.458-0.83-0.555-1.397-0.305
			c-0.486,0.216-1.021,0.32-1.52,0.512c-0.522,0.198-0.876,0.038-1.117-0.436c-0.281-0.551-0.59-1.093-0.824-1.666
			c-0.18-0.444-0.46-0.518-0.904-0.552c-0.715-0.052-1.168,0.132-1.399,0.855c-0.145,0.451-0.425,0.856-0.628,1.29
			c-0.261,0.557-0.638,0.72-1.233,0.49C32.869,152.958,32.163,152.761,31.467,152.535z"/>
		<path fill-rule="evenodd" clip-rule="evenodd" fill="#FFFFFF" d="M36.646,154.701c2.342,0.029,4.268,1.989,4.221,4.296
			c-0.048,2.297-1.994,4.189-4.272,4.155c-2.327-0.035-4.236-2.014-4.18-4.335C32.468,156.584,34.432,154.675,36.646,154.701z
			 M40.228,158.912c-0.008-2-1.615-3.584-3.623-3.569c-1.953,0.016-3.54,1.608-3.549,3.564c-0.01,2.007,1.58,3.607,3.584,3.608
			C38.646,162.515,40.235,160.92,40.228,158.912z"/>
		<path fill-rule="evenodd" clip-rule="evenodd" fill="#FFFFFF" d="M38.503,158.943c-0.005,0.959-0.874,1.835-1.833,1.847
			c-1.006,0.014-1.901-0.876-1.885-1.875c0.017-1.018,0.902-1.869,1.915-1.843C37.667,157.1,38.508,157.971,38.503,158.943z
			 M37.865,158.958c0.015-0.708-0.492-1.237-1.192-1.246c-0.711-0.009-1.229,0.487-1.248,1.193
			c-0.018,0.707,0.484,1.233,1.189,1.247C37.31,160.166,37.851,159.648,37.865,158.958z"/>
	</g>
</g>
<g>
	<g id="_x31_0d5KC_1_">
		<g>
			<path fill-rule="evenodd" clip-rule="evenodd" fill="#FFFFFF" d="M44.22,251.528c-0.369,0.16-0.737,0.458-1.106,0.461
				c-6.472,0.028-12.943,0.02-19.54,0.02c0-3.475,0-6.856,0-10.34c0.494-0.026,0.943-0.07,1.393-0.072
				c5.828-0.004,11.658-0.008,17.486,0.008c0.59,0.002,1.179,0.131,1.768,0.201C44.22,245.046,44.22,248.288,44.22,251.528z"/>
			<path fill-rule="evenodd" clip-rule="evenodd" fill="#FFFFFF" d="M8.664,242.917c0.888-2.101,2.476-2.928,4.733-2.806
				c2.03,0.11,4.071,0.008,6.107,0.03c2.126,0.023,2.502,0.416,2.497,2.47c-0.003,1.099-0.001,2.196-0.001,3.43
				c-2.312,0-4.477-0.05-6.635,0.037c-0.495,0.021-0.971,0.517-1.455,0.794c0.484,0.232,0.962,0.646,1.453,0.662
				c2.16,0.074,4.324,0.032,6.628,0.032c0,1.65,0.114,3.177-0.069,4.669c-0.055,0.442-0.933,1.101-1.452,1.119
				c-2.954,0.104-5.92,0.152-8.87,0c-1.518-0.08-2.314-1.373-2.937-2.66C8.664,248.103,8.664,245.509,8.664,242.917z"/>
		</g>
	</g>
	<path fill-rule="evenodd" clip-rule="evenodd" fill="#FFFFFF" d="M39.311,227.501c-0.501-0.384-1.225-0.667-1.848-0.67
		c-9.064-0.041-18.129-0.033-27.192-0.015c-0.536,0-1.071,0.173-1.606,0.268c0,3.24,0,6.481,0,9.722
		c0.526,0.117,1.052,0.334,1.579,0.334c9.09,0.021,18.179,0.031,27.268-0.018c0.658-0.005,1.418-0.348,1.951-0.764
		c1.633-1.272,3.178-2.656,4.758-3.996c0-0.278,0-0.557,0-0.834C42.589,230.177,40.99,228.788,39.311,227.501z M14.501,232.647
		H13.86c-0.467,0-0.844-0.378-0.844-0.844c0-0.467,0.377-0.846,0.844-0.846h0.641c0.467,0,0.845,0.379,0.845,0.846
		C15.346,232.27,14.968,232.647,14.501,232.647z M18.842,232.647h-0.641c-0.467,0-0.845-0.378-0.845-0.844
		c0-0.467,0.378-0.846,0.845-0.846h0.641c0.467,0,0.845,0.379,0.845,0.846C19.687,232.27,19.309,232.647,18.842,232.647z
		 M23.183,232.647h-0.641c-0.467,0-0.845-0.378-0.845-0.844c0-0.467,0.378-0.846,0.845-0.846h0.641c0.467,0,0.844,0.379,0.844,0.846
		C24.026,232.27,23.649,232.647,23.183,232.647z M27.522,232.647h-0.641c-0.467,0-0.844-0.378-0.844-0.844
		c0-0.467,0.377-0.846,0.844-0.846h0.641c0.467,0,0.845,0.379,0.845,0.846C28.367,232.27,27.989,232.647,27.522,232.647z
		 M31.863,232.647h-0.641c-0.467,0-0.845-0.378-0.845-0.844c0-0.467,0.378-0.846,0.845-0.846h0.641c0.467,0,0.845,0.379,0.845,0.846
		C32.708,232.27,32.33,232.647,31.863,232.647z"/>
</g>
<g>
	<path fill-rule="evenodd" clip-rule="evenodd" fill="#FFFFFF" d="M40.375,299.913c0.084-1.238,0.245-2.384,0.208-3.521
		c-0.024-0.771-0.738-1.139-1.407-1.312c-0.677-0.175-1.395-0.276-2.093-0.267c-1.401,0.019-1.4,0.059-1.893-1.264
		c2.34-1.385,5.904-0.016,6.506,2.6c0.279,1.213,0.287,2.5,0.311,3.756c0.011,0.549,0.146,0.824,0.654,0.996
		c0.525,0.178,1.031,0.416,1.533,0.652c1.484,0.697,2.163,2.215,1.545,3.725c-1.203,2.945-2.479,5.861-3.734,8.785
		c-0.373,0.868-1.109,1.371-1.945,1.709c-8.361,3.375-16.727,6.748-25.098,10.099c-1.951,0.78-3.877-0.054-4.675-2.002
		c-1.511-3.694-3.001-7.397-4.47-11.108c-0.791-2,0.032-3.911,2.037-4.723c8.312-3.361,16.632-6.706,24.951-10.053
		c1.053-0.424,2.09-0.457,3.158,0.034C37.38,298.672,38.829,299.254,40.375,299.913z M39.223,304.384
		c0.004-0.074,0.009-0.15,0.013-0.225c-0.662,0.197-1.055,0.627-1.098,1.344c-0.043,0.687,0.275,1.152,0.893,1.438
		c0.613,0.279,1.143,0.116,1.602-0.307c0.64-0.594,0.528-1.166-0.24-1.545C39.985,304.888,39.612,304.62,39.223,304.384z"/>
</g>
<g id="Qwm9fP_1_">
	<g>
		<path fill="#FFFFFF" d="M6.566,393.593c0-6.587,0-13.175,0-19.762c0.615-2.064,2.086-2.688,4.123-2.681
			c10.852,0.04,21.702,0.04,32.553,0c2.036-0.008,3.509,0.616,4.122,2.681c0,6.587,0,13.175,0,19.762
			c-0.622,2.052-2.078,2.69-4.122,2.682c-10.851-0.043-21.701-0.043-32.553,0C8.645,396.283,7.188,395.645,6.566,393.593z
			 M22.219,374.33c0,0.329,0,0.615,0,0.9c-0.002,2.204,0.012,4.408-0.008,6.612c-0.01,1.121-0.67,1.86-1.561,1.825
			c-0.877-0.033-1.477-0.747-1.486-1.823c-0.014-1.674-0.004-3.347-0.004-5.02c0-0.815,0-1.632,0-2.489c-1.105,0-2.122,0-3.208,0
			c0,1.214,0.016,2.378-0.004,3.54c-0.009,0.525-0.03,1.062-0.14,1.573c-0.155,0.723-0.723,1.046-1.408,1.049
			c-0.698,0.003-1.221-0.371-1.409-1.066c-0.101-0.379-0.12-0.786-0.126-1.181c-0.014-1.294-0.004-2.587-0.004-3.921
			c-1.088,0-2.082,0-3.121,0c0,6.271,0,12.493,0,18.761c11.502,0,22.956,0,34.449,0c0-6.272,0-12.496,0-18.761
			c-1.045,0-2.039,0-3.119,0c0,1.102,0.012,2.156-0.004,3.212c-0.011,0.608-0.005,1.226-0.114,1.82
			c-0.138,0.749-0.7,1.132-1.431,1.135c-0.688,0.003-1.235-0.329-1.406-1.054c-0.09-0.381-0.127-0.782-0.131-1.175
			c-0.016-1.314-0.006-2.63-0.006-3.936c-1.129,0-2.125,0-3.207,0c0,0.332,0,0.619,0,0.905c-0.002,2.177-0.004,4.354,0,6.532
			c0.002,0.766-0.186,1.437-0.961,1.754c-1.09,0.447-2.062-0.285-2.086-1.609c-0.033-1.752-0.011-3.505-0.011-5.258
			c0-0.763,0-1.525,0-2.31c-1.118,0-2.134,0-3.192,0c0,1.23,0.014,2.396-0.006,3.562c-0.008,0.5,0.046,1.058-0.155,1.481
			c-0.201,0.425-0.64,0.91-1.06,1.011c-0.421,0.101-1.097-0.104-1.387-0.425c-0.326-0.361-0.459-0.994-0.482-1.518
			c-0.064-1.368-0.022-2.74-0.022-4.13C24.307,374.33,23.312,374.33,22.219,374.33z"/>
	</g>
</g>
</svg>
